PathFileType   4   (X/Y/Z)
DataRate	CameraRate	NumFrames	NumMarkers	Units	OrigDataRate	OrigDataStartFrame	OrigNumFrames
120.0	120.0	12	37	mm	120.0	28	81
Frame#	Time	midhip	hip_r	hip_l	knee_r	knee_l	ankle_r	ankle_l	midasis	asis_r	asis_l	psis_r	psis_l	epicondLat_r	epicondLat_l	epicondMed_r	epicondMed_l	malleolusLat_r	malleolusLat_l	malleolusMedv_r	malleolusMedv_l	neck	subclavicle_r	subclavicle_l	sternalnotch	xyphoidprocess	thighwand_r	thighwand_l	upperleg1_r	upperleg1_l	upperleg2_r	upperleg2_l	shankwand_r	shankwand_l	lowerleg1_r	lowerleg1_l	toe_r	toe_l
 	 	X1	Y1	Z1	X2	Y2	Z2	X3	Y3	Z3	X4	Y4	Z4	X5	Y5	Z5	X6	Y6	Z6	X7	Y7	Z7	X8	Y8	Z8	X9	Y9	Z9	X10	Y10	Z10	X11	Y11	Z11	X12	Y12	Z12	X13	Y13	Z13	X14	Y14	Z14	X15	Y15	Z15	X16	Y16	Z16	X17	Y17	Z17	X18	Y18	Z18	X19	Y19	Z19	X20	Y20	Z20	X21	Y21	Z21	X22	Y22	Z22	X23	Y23	Z23	X24	Y24	Z24	X25	Y25	Z25	X26	Y26	Z26	X27	Y27	Z27	X28	Y28	Z28	X29	Y29	Z29	X30	Y30	Z30	X31	Y31	Z31	X32	Y32	Z32	X33	Y33	Z33	X34	Y34	Z34	X35	Y35	Z35	X36	Y36	Z36	X37	Y37	Z37

	28	0.29167	910.746	826.046	-289.889	914.620	805.745	-228.782	902.826	814.036	-345.366	1086.004	462.302	-187.152	808.185	469.920	-347.708	1130.144	83.859	-218.446	652.163	91.083	-342.268	976.880	882.875	-282.774	978.428	875.510	-182.301	975.331	890.239	-383.248	825.335	923.830	-247.349	825.003	931.072	-301.818	1084.348	468.102	-132.484	821.682	466.567	-400.404	1101.276	456.007	-228.155	792.107	457.041	-311.353	1107.892	78.701	-187.455	656.378	88.799	-380.468	1167.166	97.982	-232.241	669.213	101.138	-316.194	920.113	1334.098	-250.652	1010.792	1238.374	-209.563	1001.406	1240.814	-314.983	993.171	1253.683	-265.941	1013.202	1079.140	-270.768	1132.603	684.418	-187.309	979.377	592.380	-318.478	1037.473	691.519	-151.377	927.696	651.042	-385.680	1074.178	614.988	-142.996	904.418	567.334	-383.370	1065.478	188.350	-116.051	668.611	209.991	-450.260	1091.490	196.902	-151.544	675.334	213.232	-408.819	1219.236	58.954	-139.161	768.518	37.469	-341.212
	29	0.30000	928.886	824.780	-287.905	933.597	804.386	-227.159	920.279	812.487	-343.592	1103.341	460.081	-189.554	820.899	469.440	-346.955	1165.594	81.817	-215.202	654.696	95.151	-342.241	994.725	881.813	-282.012	997.587	874.567	-181.619	991.863	889.059	-382.404	843.183	921.969	-244.590	842.235	929.181	-299.109	1102.148	465.470	-134.832	833.874	466.199	-399.789	1114.801	452.051	-233.306	805.390	457.082	-309.510	1143.869	76.121	-183.931	658.850	92.825	-380.446	1202.298	97.968	-228.931	671.967	104.407	-316.026	936.568	1332.811	-249.632	1027.525	1237.382	-209.154	1017.754	1239.845	-314.392	1009.761	1252.686	-265.199	1030.096	1078.180	-270.370	1150.301	680.435	-188.468	994.357	590.105	-318.575	1055.543	687.324	-152.251	942.291	649.719	-384.944	1090.765	609.942	-145.266	918.045	566.307	-382.629	1096.683	185.170	-113.732	674.455	213.715	-449.704	1122.233	194.136	-149.414	681.211	216.493	-407.882	1257.514	61.146	-137.408	769.275	37.725	-341.156
	30	0.30833	947.295	823.544	-285.770	952.927	803.133	-225.414	938.055	810.957	-341.677	1120.656	457.994	-192.023	834.892	468.668	-346.247	1197.957	80.172	-212.286	657.787	99.659	-342.302	1012.854	880.849	-281.175	1017.057	873.791	-180.867	1008.651	887.907	-381.482	861.327	920.146	-241.733	859.748	927.294	-296.281	1119.954	462.953	-137.251	847.307	465.634	-399.227	1127.712	448.360	-239.025	819.807	457.123	-307.625	1176.938	74.172	-180.594	661.903	97.275	-380.507	1234.210	98.410	-225.973	675.227	108.066	-315.981	952.823	1331.602	-248.477	1044.128	1236.563	-208.594	1034.218	1239.112	-313.572	1026.331	1251.859	-264.359	1047.265	1077.447	-269.893	1168.285	676.389	-189.651	1010.304	587.968	-318.782	1073.865	683.108	-152.764	957.750	648.570	-384.208	1107.355	604.770	-147.521	932.590	565.410	-381.916	1126.291	182.843	-111.317	681.218	217.718	-449.203	1150.866	192.674	-147.261	688.018	220.028	-407.069	1292.724	63.443	-136.387	770.162	38.017	-341.111
	31	0.31667	966.005	822.374	-283.556	972.535	802.000	-223.596	956.146	809.461	-339.680	1138.040	456.120	-194.411	850.260	467.548	-345.624	1227.072	78.681	-209.869	661.551	104.639	-342.472	1031.232	879.987	-280.279	1036.744	873.188	-180.051	1025.720	886.787	-380.507	879.761	918.373	-238.836	877.547	925.427	-293.390	1137.897	460.677	-139.600	862.093	464.807	-398.753	1141.587	445.225	-243.646	835.938	456.580	-306.102	1206.919	72.606	-177.633	665.645	102.178	-380.675	1262.781	98.712	-223.497	679.130	112.137	-316.103	969.011	1330.503	-247.197	1061.120	1235.924	-207.711	1050.654	1238.563	-312.676	1042.859	1251.195	-263.409	1064.880	1076.916	-269.274	1186.552	672.539	-190.949	1027.286	585.972	-319.103	1092.477	679.295	-152.818	974.098	647.570	-383.457	1124.621	600.288	-149.216	948.375	564.559	-381.342	1154.183	181.191	-108.920	689.004	221.989	-448.785	1177.588	192.073	-145.156	695.272	223.933	-406.693	1324.662	65.451	-136.337	771.199	38.334	-341.083
	32	0.32500	985.064	821.316	-281.353	992.352	800.990	-221.742	974.549	807.995	-337.645	1155.515	454.454	-196.588	867.069	466.023	-345.124	1252.858	77.122	-208.077	666.123	110.107	-342.767	1049.829	879.221	-279.333	1056.564	872.755	-179.175	1043.093	885.686	-379.492	898.461	916.655	-235.961	895.630	923.579	-290.506	1156.057	458.689	-141.754	878.318	463.652	-398.398	1156.386	442.907	-247.271	853.943	455.189	-304.526	1233.703	71.179	-175.214	670.201	107.552	-380.965	1287.751	98.556	-222.183	683.888	116.606	-316.397	985.200	1329.533	-245.698	1078.275	1235.443	-206.624	1067.061	1238.249	-311.656	1059.355	1250.688	-262.342	1082.666	1076.603	-268.646	1205.087	669.077	-192.495	1045.353	584.110	-319.530	1111.417	676.280	-152.517	991.048	646.585	-382.711	1142.657	596.793	-150.466	965.253	563.620	-380.810	1180.241	179.979	-106.690	697.908	226.518	-448.473	1202.539	191.798	-143.059	703.724	228.057	-406.499	1353.207	66.766	-137.437	772.397	38.667	-341.078
	33	0.33333	1004.417	820.315	-279.203	1012.325	800.097	-219.858	993.260	806.543	-335.593	1173.050	452.935	-198.454	885.399	464.033	-344.757	1275.357	75.345	-206.969	671.665	116.059	-343.194	1068.622	878.529	-278.333	1076.451	872.485	-178.235	1060.794	884.574	-378.430	917.388	914.995	-233.170	913.981	921.741	-287.700	1174.467	456.972	-143.620	896.068	462.103	-398.168	1171.210	441.342	-250.348	873.258	453.625	-302.348	1257.287	69.693	-173.446	675.717	113.399	-381.388	1309.094	97.714	-222.097	689.611	121.517	-316.798	1001.291	1328.663	-244.023	1095.333	1235.071	-205.471	1083.060	1238.138	-310.535	1075.842	1250.326	-261.146	1100.079	1076.456	-268.110	1223.867	666.119	-194.422	1064.535	582.362	-320.050	1130.749	674.146	-152.207	1008.786	645.436	-382.081	1161.106	594.281	-151.623	983.071	562.569	-380.162	1204.362	178.970	-104.788	708.024	231.296	-448.278	1225.700	191.261	-141.228	713.725	232.376	-406.324	1378.325	67.028	-139.762	773.762	39.014	-341.106
	34	0.34167	1023.904	819.214	-277.043	1032.395	799.306	-217.925	1012.262	805.071	-333.515	1190.600	451.503	-199.952	905.286	461.530	-344.540	1294.674	73.309	-206.542	678.356	122.471	-343.757	1087.587	877.881	-277.255	1096.343	872.362	-177.217	1078.831	883.401	-377.294	936.480	913.403	-230.516	932.567	919.901	-285.034	1193.134	455.487	-145.155	915.385	460.104	-398.077	1186.191	440.339	-252.892	893.954	451.623	-300.933	1277.741	68.054	-172.367	682.354	119.707	-381.949	1326.925	95.924	-223.164	696.476	126.917	-317.332	1017.338	1327.924	-242.272	1112.018	1234.843	-204.372	1099.075	1238.066	-309.318	1092.323	1250.077	-259.828	1117.197	1076.386	-267.361	1242.854	663.723	-196.818	1084.846	580.695	-320.648	1150.780	672.927	-152.240	1027.802	644.063	-381.566	1180.235	592.655	-152.922	1002.360	561.419	-379.780	1226.506	177.992	-103.347	719.448	236.317	-448.207	1246.544	190.120	-140.096	724.822	236.925	-406.236	1400.030	66.028	-143.223	775.321	39.412	-341.178
	35	0.35000	1043.514	818.011	-274.735	1052.503	798.608	-215.891	1031.518	803.545	-331.368	1208.149	450.150	-201.080	926.733	458.479	-344.478	1310.966	71.083	-206.737	686.381	129.321	-344.447	1106.688	877.243	-276.065	1116.184	872.377	-176.090	1097.193	882.108	-376.041	955.653	911.893	-228.041	951.328	918.052	-282.552	1212.050	454.218	-146.370	936.270	457.622	-398.130	1201.405	439.429	-254.456	916.841	448.355	-299.864	1295.206	66.289	-171.938	690.285	126.467	-382.642	1341.251	93.076	-225.257	704.768	132.756	-318.086	1033.420	1327.235	-240.330	1128.534	1234.811	-203.232	1115.677	1238.073	-307.905	1108.794	1249.887	-258.401	1134.815	1076.467	-266.279	1261.997	661.920	-199.671	1106.271	579.074	-321.307	1171.662	672.497	-152.889	1047.914	642.363	-381.134	1200.152	591.709	-154.385	1023.253	559.601	-379.493	1246.737	176.976	-102.438	732.285	241.575	-448.267	1264.553	188.280	-139.812	737.233	241.657	-406.290	1418.397	63.749	-147.576	777.167	39.964	-341.305
	36	0.35833	1063.201	816.740	-272.191	1072.559	798.009	-213.692	1050.957	801.939	-329.094	1225.724	448.952	-201.889	949.706	454.879	-344.553	1324.390	68.824	-207.448	695.907	136.612	-345.253	1125.867	876.586	-274.718	1135.895	872.531	-174.811	1115.839	880.641	-374.625	974.807	910.495	-225.777	970.154	916.221	-280.322	1231.195	453.197	-147.327	958.679	454.655	-398.309	1217.799	438.262	-254.619	942.089	443.848	-298.415	1309.857	64.534	-172.055	699.688	133.681	-383.455	1352.677	89.388	-228.076	714.789	138.826	-319.089	1049.498	1326.459	-238.163	1145.330	1234.849	-201.848	1132.279	1238.222	-306.323	1125.260	1249.688	-256.892	1152.846	1076.697	-265.165	1281.215	660.750	-202.848	1128.755	577.482	-322.003	1192.929	672.436	-154.222	1068.995	640.299	-380.703	1220.745	591.349	-155.871	1045.621	556.955	-379.036	1265.206	175.972	-102.048	746.669	247.048	-448.459	1280.125	185.804	-140.346	751.259	246.544	-406.535	1433.552	60.393	-152.441	779.497	40.861	-341.501
	37	0.36667	1082.879	815.482	-269.404	1092.448	797.532	-211.272	1070.485	800.251	-326.640	1243.383	448.052	-202.468	974.148	450.772	-344.703	1335.138	66.733	-208.536	707.066	144.384	-346.147	1145.038	875.907	-273.176	1155.376	872.843	-173.342	1134.700	878.970	-373.010	993.832	909.237	-223.758	988.911	914.456	-278.420	1250.527	452.507	-148.116	982.550	451.239	-398.549	1236.364	436.866	-253.888	968.981	438.505	-297.698	1321.916	62.979	-172.573	710.729	141.372	-384.354	1362.064	84.992	-231.205	726.804	144.944	-320.342	1065.554	1325.516	-235.987	1162.163	1234.738	-200.316	1148.704	1238.342	-304.567	1141.725	1249.428	-255.338	1170.787	1076.865	-264.112	1300.407	660.263	-206.111	1152.201	575.942	-322.685	1214.204	672.371	-156.043	1091.107	637.934	-380.295	1242.036	591.321	-157.390	1069.353	553.968	-378.824	1282.124	175.120	-102.085	762.749	252.691	-448.780	1294.061	182.931	-141.591	767.075	251.473	-406.811	1445.706	56.341	-157.380	782.634	42.365	-341.800
	38	0.37500	1102.406	814.299	-266.357	1112.053	797.211	-208.607	1089.992	798.504	-323.982	1261.151	447.610	-202.904	999.966	446.272	-344.828	1343.423	65.002	-209.849	719.955	152.717	-347.082	1164.101	875.222	-271.421	1174.518	873.339	-171.656	1153.684	877.105	-371.186	1012.627	908.156	-222.015	1007.484	912.786	-276.886	1269.933	452.238	-148.808	1007.794	447.463	-398.750	1255.792	435.358	-252.502	997.054	432.378	-297.953	1331.621	61.802	-173.342	723.553	149.579	-385.285	1369.806	80.755	-234.185	740.810	151.071	-321.837	1081.673	1324.442	-233.805	1178.924	1234.340	-198.822	1165.167	1238.216	-302.708	1158.166	1249.085	-253.791	1188.515	1076.761	-263.067	1319.453	660.485	-209.127	1176.465	574.529	-323.249	1235.587	672.301	-157.884	1113.954	635.150	-379.981	1263.606	591.421	-158.698	1094.111	550.695	-378.991	1297.650	174.571	-102.406	780.679	258.439	-449.207	1307.129	180.528	-143.081	784.898	256.396	-407.161	1455.130	52.101	-161.961	787.037	44.773	-342.257
	39	0.38333	1121.553	813.600	-264.223	1131.280	797.098	-205.706	1109.376	796.758	-321.117	1278.963	447.732	-203.263	1027.045	441.558	-344.799	1349.505	63.763	-211.243	734.650	161.700	-347.979	1182.966	874.583	-269.463	1193.244	874.063	-169.753	1172.689	875.102	-369.174	1031.118	907.289	-220.579	1025.790	911.264	-275.733	1289.205	452.438	-149.430	1034.324	443.470	-398.776	1271.456	434.806	-251.023	1025.880	425.624	-299.176	1339.221	61.104	-174.237	738.286	158.335	-386.159	1375.248	77.762	-237.030	756.512	157.582	-323.450	1097.887	1323.417	-231.633	1195.606	1233.685	-197.536	1181.517	1237.760	-300.919	1174.538	1248.671	-252.331	1205.697	1076.314	-262.017	1338.237	661.366	-211.535	1201.369	573.371	-323.524	1257.275	672.985	-158.750	1137.371	632.075	-379.706	1284.092	591.962	-159.398	1119.578	547.039	-379.482	1311.858	174.414	-102.857	800.575	264.223	-449.687	1319.914	179.753	-144.250	804.692	261.476	-407.795	1462.173	48.189	-165.852	793.273	48.361	-342.950
